<svg width="209" height="27" fill="none" xmlns="http://www.w3.org/2000/svg"><path d="M13.403 24.358C7.105 24.358 2 19.353 2 13.18S7.105 2 13.403 2m-.002 22.358h15.875M13.401 2h3.354" stroke="#F5F5F5" stroke-width="3.801"/><path d="M13.403 24.358C7.105 24.358 2 19.353 2 13.18S7.105 2 13.403 2" stroke="#F5F5F5" stroke-width="3.801"/><path d="M12.888 5.38h19.036m19.394 15.53H31.924m18.729 0c4.438 0 8.036-3.477 8.036-7.765S55.091 5.38 50.653 5.38H30.636m-17.227 0c-4.438 0-8.036 3.477-8.036 7.765s3.598 7.765 8.036 7.765h20.017" stroke="#F49740" stroke-width="1.073"/><path d="M34.643 13.18a5.59 5.59 0 110 11.178M29.277 13.18a5.59 5.59 0 010-11.18m-.447 11.18h6.26M22.57 24.358h12.073M29.276 2H41.35M29.277 13.18a5.59 5.59 0 010-11.18m21.241 22.358c6.297 0 11.402-5.005 11.402-11.179S56.815 2 50.518 2M34.643 2h15.874" stroke="#F5F5F5" stroke-width="3.801"/><path d="M50.518 24.358c6.297 0 11.402-5.005 11.402-11.179S56.815 2 50.518 2M34.643 2h15.874m-3.353 22.358h3.354" stroke="#F5F5F5" stroke-width="3.801"/><path d="M85.85 18.172h-1.843v-9.21h1.843v3.687h3.68V8.963h1.843v9.209H89.53v-3.68h-3.68v3.68zm14.501-3.68c0 .51-.097.989-.289 1.438a3.739 3.739 0 01-.79 1.17c-.334.329-.726.59-1.175.783a3.566 3.566 0 01-1.433.289 3.61 3.61 0 01-1.438-.29 3.79 3.79 0 01-1.169-.783 3.792 3.792 0 01-.784-1.169 3.618 3.618 0 01-.288-1.438v-5.53h1.837v5.53c0 .252.046.49.14.713a1.918 1.918 0 00.983.982c.227.094.467.141.72.141a1.811 1.811 0 001.303-.539 1.82 1.82 0 00.392-.584c.099-.223.148-.46.148-.713v-5.53h1.843v5.53zm10.737 3.68h-1.836v-6.577a.84.84 0 00-.078-.36.846.846 0 00-.199-.288.84.84 0 00-.289-.2.912.912 0 00-.359-.07.914.914 0 00-.848.559.915.915 0 00-.071.36v6.576h-1.843v-6.577a.915.915 0 00-.07-.36.849.849 0 00-.2-.288.84.84 0 00-.289-.2.912.912 0 00-.359-.07.917.917 0 00-.655.27.906.906 0 00-.263.649v6.576h-1.844v-6.577c0-.38.071-.738.213-1.072a2.749 2.749 0 011.47-1.47 2.704 2.704 0 011.079-.219c.343 0 .672.062.989.186.317.12.601.296.854.527.253-.231.535-.407.848-.527.317-.124.646-.186.989-.186.381 0 .738.073 1.072.218.338.142.632.339.88.591.253.249.45.542.591.88.146.334.218.691.218 1.072v6.577zm7.071-3.68v-1.843c0-.253-.049-.49-.148-.713a1.797 1.797 0 00-.983-.983 1.741 1.741 0 00-.712-.147c-.253 0-.493.049-.72.147a1.835 1.835 0 00-1.123 1.696v1.843h3.686zm1.843 3.68h-1.843v-1.844h-3.686v1.844h-1.837v-5.523c0-.51.096-.987.289-1.432.193-.45.454-.841.783-1.175a3.739 3.739 0 011.169-.79 3.62 3.62 0 011.439-.29c.509 0 .986.097 1.432.29a3.72 3.72 0 011.175.79c.334.334.597.725.79 1.175.192.445.289.922.289 1.432v5.523zm8.965 0h-1.972l-3.551-6.063v6.063h-1.843v-9.21h1.971l3.552 6.07v-6.07h1.843v9.21zm7.244-7.366v3.686h1.843c.253 0 .49-.047.713-.141a1.93 1.93 0 00.584-.399 1.82 1.82 0 00.392-.584 1.798 1.798 0 000-1.432 1.797 1.797 0 00-.976-.983 1.746 1.746 0 00-.713-.147h-1.843zm0 7.366h-1.843v-9.21h3.686c.338 0 .663.045.976.135.312.086.604.21.873.373.275.158.523.351.745.578.227.223.42.47.578.745.163.274.287.567.373.88.09.312.134.637.134.976 0 .317-.04.625-.121.925-.078.3-.191.584-.341.854a3.49 3.49 0 01-.539.745 3.65 3.65 0 01-.72.59l1.022 2.409h-1.959l-.803-1.856-2.061.012v1.844zm13.049 0h-6.313v-9.21h6.313v1.844h-4.47v1.843h3.025v1.843h-3.025v1.836h4.47v1.844zm.649-6.448c0-.38.073-.738.218-1.072a2.823 2.823 0 011.471-1.471 2.65 2.65 0 011.072-.218h4.226v1.843h-4.226a.92.92 0 00-.655.27.906.906 0 00-.263.648c0 .129.023.25.07.366.047.111.112.21.193.296a.991.991 0 00.295.192.92.92 0 00.36.07h1.843c.381 0 .739.074 1.073.22.338.14.631.337.879.59.253.248.45.542.591.88.146.334.219.691.219 1.072 0 .381-.073.739-.219 1.073a2.735 2.735 0 01-1.47 1.47 2.655 2.655 0 01-1.073.219h-4.09v-1.844h4.09a.914.914 0 00.848-.558.914.914 0 00.071-.36.914.914 0 00-.071-.36.846.846 0 00-.199-.288.859.859 0 00-.289-.2.912.912 0 00-.36-.07h-1.843a2.65 2.65 0 01-1.072-.219 2.88 2.88 0 01-.88-.59 2.908 2.908 0 01-.591-.88 2.709 2.709 0 01-.218-1.079zm17.602 1.881a4.805 4.805 0 01-.649 2.402 4.731 4.731 0 01-.744.964 4.927 4.927 0 01-.964.751c-.351.206-.73.364-1.136.475a4.615 4.615 0 01-1.266.174 4.6 4.6 0 01-1.264-.174 4.825 4.825 0 01-1.137-.475 4.957 4.957 0 01-1.715-1.715 5.086 5.086 0 01-.482-1.136 4.783 4.783 0 01-.166-1.266c0-.436.055-.858.166-1.264a4.91 4.91 0 01.482-1.137c.21-.351.46-.672.751-.964.291-.29.613-.539.964-.744a4.825 4.825 0 011.137-.476 4.6 4.6 0 011.264-.173c.437 0 .859.058 1.266.173a4.698 4.698 0 012.1 1.22 4.744 4.744 0 011.393 3.365zm-1.83 0c0-.402-.077-.78-.231-1.136a2.871 2.871 0 00-.63-.931 2.879 2.879 0 00-.931-.63 2.83 2.83 0 00-1.137-.23c-.406 0-.787.076-1.143.23a2.99 2.99 0 00-.931.63c-.265.26-.475.571-.629.93a2.828 2.828 0 00-.231 1.137c0 .403.077.782.231 1.137a2.99 2.99 0 001.56 1.554c.356.155.737.232 1.143.232.403 0 .782-.077 1.137-.231a2.99 2.99 0 001.561-1.554c.154-.356.231-.735.231-1.138zm10.307.887a3.6 3.6 0 01-.289 1.438 3.721 3.721 0 01-.79 1.17c-.334.329-.725.59-1.175.783a3.565 3.565 0 01-1.432.289c-.51 0-.989-.096-1.438-.29a3.77 3.77 0 01-1.169-.783 3.79 3.79 0 01-.784-1.169 3.623 3.623 0 01-.289-1.438v-5.53h1.837v5.53c0 .252.047.49.141.713a1.9 1.9 0 00.983.982c.227.094.466.141.719.141a1.816 1.816 0 001.304-.539c.167-.167.297-.362.391-.584.099-.223.148-.46.148-.713v-5.53h1.843v5.53zm3.442-3.686v3.686h1.843c.253 0 .491-.047.713-.141a1.9 1.9 0 00.584-.399c.168-.167.298-.361.392-.584a1.78 1.78 0 00.148-.72c0-.252-.049-.49-.148-.712a1.814 1.814 0 00-.976-.983 1.742 1.742 0 00-.713-.147h-1.843zm0 7.366h-1.843v-9.21h3.686c.338 0 .664.045.977.135.312.086.603.21.873.373.274.158.522.351.745.578.227.223.419.47.578.745.163.274.287.567.372.88.09.312.135.637.135.976 0 .317-.041.625-.122.925-.077.3-.19.584-.34.854a3.644 3.644 0 01-1.259 1.336l1.021 2.408h-1.959l-.802-1.856-2.062.012v1.844zm14.09-.944a4.72 4.72 0 01-4.354.97 4.86 4.86 0 01-1.137-.476 4.95 4.95 0 01-1.714-1.715 5.04 5.04 0 01-.482-1.136 4.783 4.783 0 01-.167-1.266c0-.436.056-.858.167-1.264.116-.407.276-.786.482-1.137a4.87 4.87 0 011.714-1.715 4.69 4.69 0 011.137-.482 4.712 4.712 0 012.916.122c.53.193 1.01.476 1.438.848l-.976 1.606a2.728 2.728 0 00-.957-.668 2.893 2.893 0 00-1.156-.238c-.407 0-.788.078-1.143.231a2.968 2.968 0 00-1.561 1.56 2.828 2.828 0 00-.231 1.137c0 .403.077.782.231 1.137a2.99 2.99 0 001.561 1.555c.355.154.736.23 1.143.23a2.96 2.96 0 001.156-.23 2.8 2.8 0 00.957-.675l.976 1.606zm7.385.944h-6.313v-9.21h6.313v1.844h-4.469v1.843h3.024v1.843h-3.024v1.836h4.469v1.844zm.649-6.448c0-.38.072-.738.218-1.072a2.823 2.823 0 011.471-1.471 2.65 2.65 0 011.072-.218h4.226v1.843h-4.226a.91.91 0 00-.918.918.961.961 0 00.263.662.983.983 0 00.296.192c.111.047.231.07.359.07h1.843c.382 0 .739.074 1.073.22.338.14.631.337.88.59.252.248.449.542.59.88.146.334.219.691.219 1.072 0 .381-.073.739-.219 1.073a2.749 2.749 0 01-1.47 1.47 2.652 2.652 0 01-1.073.219h-4.09v-1.844h4.09a.914.914 0 00.848-.558.914.914 0 00.071-.36.914.914 0 00-.071-.36.86.86 0 00-.199-.288.849.849 0 00-.289-.2.912.912 0 00-.36-.07h-1.843a2.65 2.65 0 01-1.072-.219 2.892 2.892 0 01-.88-.59 2.908 2.908 0 01-.591-.88 2.691 2.691 0 01-.218-1.079z" fill="#F5F5F5"/></svg>